# xmcd
#
# Track frame offsets: 
#        150
#        22220
#        45359
#        67520
#        85269
#        101953
#        120305
#        137485
#        155617
#        175999
#        192554
#        211693
#        230567
#
# Disc length: 3332 seconds
#
# Revision: 2
# Processed by: cddbd v1.5.2PL0 Copyright (c) Steve Scherf et al.
# Submitted via: ExactAudioCopyFreeDBPlugin 1.0
#
DISCID=a90d020d
DTITLE=纯音 - DTSES非凡
DYEAR=2013
DGENRE=DTS ES
TTITLE0=神话
TTITLE1=如果云知道
TTITLE2=城里的月光
TTITLE3=两只蝴蝶
TTITLE4=希望
TTITLE5=童话
TTITLE6=小薇
TTITLE7=女人花
TTITLE8=千纸鹤
TTITLE9=栀子花开
TTITLE10=月半弯
TTITLE11=丁香花
TTITLE12=我是不是该安静地走开
EXTD=
EXTT0=
EXTT1=
EXTT2=
EXTT3=
EXTT4=
EXTT5=
EXTT6=
EXTT7=
EXTT8=
EXTT9=
EXTT10=
EXTT11=
EXTT12=
PLAYORDER=
